<svg width="1425" height="334" viewBox="0 0 1425 334" fill="none" xmlns="http://www.w3.org/2000/svg">
<path d="M402.75 79.75C401.083 79.75 399.667 79.25 398.5 78.25C397.5 77.0833 397 75.6667 397 74V60.5C397 58.8333 397.5 57.4167 398.5 56.25C399.667 55.0833 401.083 54.5 402.75 54.5H418.75C420.417 54.5 421.833 55.0833 423 56.25C424.167 57.4167 424.75 58.8333 424.75 60.5V74C424.75 75.6667 424.167 77.0833 423 78.25C421.833 79.25 420.417 79.75 418.75 79.75H402.75ZM375.25 281.5C373.583 281.5 372.25 280.917 371.25 279.75C370.083 278.75 369.5 277.417 369.5 275.75V267.25C369.5 265.583 370.083 264.167 371.25 263C372.25 262 373.583 261.5 375.25 261.5H378.75C386.917 261.5 392.333 259.417 395 255.25C397.667 251.083 399 244.917 399 236.75V109.75C399 108.083 399.5 106.75 400.5 105.75C401.667 104.583 403.083 104 404.75 104H417C418.667 104 420 104.583 421 105.75C422.167 106.75 422.75 108.083 422.75 109.75V237C422.75 266.667 408.5 281.5 380 281.5H375.25ZM513.227 236.5C494.893 236.5 480.643 231.333 470.477 221C460.477 210.667 455.143 196.917 454.477 179.75L454.227 169L454.477 158.25C455.143 141.25 460.56 127.583 470.727 117.25C480.893 106.75 495.06 101.5 513.227 101.5C531.393 101.5 545.56 106.75 555.727 117.25C565.893 127.583 571.31 141.25 571.977 158.25C572.143 160.083 572.227 163.667 572.227 169C572.227 174.333 572.143 177.917 571.977 179.75C571.31 196.917 565.893 210.667 555.727 221C545.727 231.333 531.56 236.5 513.227 236.5ZM513.227 217.25C523.727 217.25 531.977 213.917 537.977 207.25C544.143 200.583 547.477 191 547.977 178.5C548.143 176.833 548.227 173.667 548.227 169C548.227 164.333 548.143 161.167 547.977 159.5C547.477 147 544.143 137.417 537.977 130.75C531.977 124.083 523.727 120.75 513.227 120.75C502.727 120.75 494.393 124.083 488.227 130.75C482.06 137.417 478.81 147 478.477 159.5L478.227 169L478.477 178.5C478.81 191 482.06 200.583 488.227 207.25C494.393 213.917 502.727 217.25 513.227 217.25ZM667.781 236.5C649.781 236.5 636.115 230.25 626.781 217.75V228.25C626.781 229.917 626.198 231.333 625.031 232.5C624.031 233.5 622.698 234 621.031 234H609.531C607.865 234 606.448 233.5 605.281 232.5C604.281 231.333 603.781 229.917 603.781 228.25V62.25C603.781 60.5833 604.281 59.25 605.281 58.25C606.448 57.0833 607.865 56.5 609.531 56.5H621.781C623.448 56.5 624.781 57.0833 625.781 58.25C626.781 59.25 627.281 60.5833 627.281 62.25V119.75C637.115 107.583 650.615 101.5 667.781 101.5C685.115 101.5 698.198 107.25 707.031 118.75C715.865 130.083 720.615 144.333 721.281 161.5C721.448 163.333 721.531 165.833 721.531 169C721.531 172.167 721.448 174.667 721.281 176.5C720.615 193.833 715.865 208.167 707.031 219.5C698.198 230.833 685.115 236.5 667.781 236.5ZM662.531 216.25C674.365 216.25 682.948 212.583 688.281 205.25C693.781 197.917 696.781 188.25 697.281 176.25C697.448 174.583 697.531 172.167 697.531 169C697.531 137.5 685.865 121.75 662.531 121.75C651.365 121.75 642.781 125.417 636.781 132.75C630.781 140.083 627.615 148.667 627.281 158.5L627.031 168.25L627.281 177.75C627.781 188.25 630.865 197.333 636.531 205C642.365 212.5 651.031 216.25 662.531 216.25ZM797.213 236.5C785.546 236.5 775.713 234.667 767.713 231C759.88 227.167 753.963 222.833 749.963 218C746.13 213.167 744.213 209.167 744.213 206C744.213 204.333 744.796 203.083 745.963 202.25C747.296 201.25 748.63 200.75 749.963 200.75H761.213C762.88 200.75 764.38 201.583 765.713 203.25C769.713 207.917 774.046 211.583 778.713 214.25C783.38 216.917 789.63 218.25 797.463 218.25C806.13 218.25 813.13 216.583 818.463 213.25C823.963 209.75 826.713 205 826.713 199C826.713 195 825.546 191.75 823.213 189.25C821.046 186.583 817.213 184.333 811.713 182.5C806.38 180.5 798.38 178.333 787.713 176C773.213 172.833 762.88 168.25 756.713 162.25C750.713 156.25 747.713 148.5 747.713 139C747.713 132.667 749.546 126.667 753.213 121C757.046 115.167 762.546 110.5 769.713 107C777.046 103.333 785.796 101.5 795.963 101.5C806.63 101.5 815.713 103.25 823.213 106.75C830.713 110.25 836.296 114.417 839.963 119.25C843.796 123.917 845.713 127.833 845.713 131C845.713 132.5 845.13 133.75 843.963 134.75C842.963 135.75 841.713 136.25 840.213 136.25H829.713C827.713 136.25 826.046 135.417 824.713 133.75C822.046 130.583 819.713 128.167 817.713 126.5C815.88 124.667 813.13 123.083 809.463 121.75C805.963 120.417 801.463 119.75 795.963 119.75C787.963 119.75 781.796 121.5 777.463 125C773.13 128.333 770.963 132.75 770.963 138.25C770.963 141.75 771.88 144.75 773.713 147.25C775.546 149.583 779.046 151.75 784.213 153.75C789.546 155.75 797.213 157.833 807.213 160C823.046 163.333 834.213 168.167 840.713 174.5C847.38 180.667 850.713 188.583 850.713 198.25C850.713 205.417 848.63 211.917 844.463 217.75C840.296 223.583 834.13 228.167 825.963 231.5C817.963 234.833 808.38 236.5 797.213 236.5ZM885.654 281.5C883.988 281.5 882.571 280.917 881.404 279.75C880.404 278.75 879.904 277.417 879.904 275.75V109.75C879.904 108.083 880.404 106.75 881.404 105.75C882.571 104.583 883.988 104 885.654 104H897.154C898.821 104 900.154 104.583 901.154 105.75C902.321 106.75 902.904 108.083 902.904 109.75V120.75C912.238 107.917 925.904 101.5 943.904 101.5C961.404 101.5 974.488 107 983.154 118C991.988 129 996.738 143.167 997.404 160.5C997.571 162.333 997.654 165.167 997.654 169C997.654 172.833 997.571 175.667 997.404 177.5C996.738 194.667 991.988 208.833 983.154 220C974.321 231 961.238 236.5 943.904 236.5C926.571 236.5 913.071 230.25 903.404 217.75V275.75C903.404 277.417 902.904 278.75 901.904 279.75C900.904 280.917 899.571 281.5 897.904 281.5H885.654ZM938.654 216.25C950.488 216.25 959.071 212.583 964.404 205.25C969.904 197.917 972.904 188.25 973.404 176.25C973.571 174.583 973.654 172.167 973.654 169C973.654 137.5 961.988 121.75 938.654 121.75C927.154 121.75 918.488 125.583 912.654 133.25C906.988 140.75 903.904 149.75 903.404 160.25L903.154 169.75L903.404 179.5C903.738 189.333 906.904 197.917 912.904 205.25C918.904 212.583 927.488 216.25 938.654 216.25ZM1081.83 236.5C1063.5 236.5 1049.25 231.333 1039.08 221C1029.08 210.667 1023.75 196.917 1023.08 179.75L1022.83 169L1023.08 158.25C1023.75 141.25 1029.16 127.583 1039.33 117.25C1049.5 106.75 1063.66 101.5 1081.83 101.5C1100 101.5 1114.16 106.75 1124.33 117.25C1134.5 127.583 1139.91 141.25 1140.58 158.25C1140.75 160.083 1140.83 163.667 1140.83 169C1140.83 174.333 1140.75 177.917 1140.58 179.75C1139.91 196.917 1134.5 210.667 1124.33 221C1114.33 231.333 1100.16 236.5 1081.83 236.5ZM1081.83 217.25C1092.33 217.25 1100.58 213.917 1106.58 207.25C1112.75 200.583 1116.08 191 1116.58 178.5C1116.75 176.833 1116.83 173.667 1116.83 169C1116.83 164.333 1116.75 161.167 1116.58 159.5C1116.08 147 1112.75 137.417 1106.58 130.75C1100.58 124.083 1092.33 120.75 1081.83 120.75C1071.33 120.75 1063 124.083 1056.83 130.75C1050.66 137.417 1047.41 147 1047.08 159.5L1046.83 169L1047.08 178.5C1047.41 191 1050.66 200.583 1056.83 207.25C1063 213.917 1071.33 217.25 1081.83 217.25ZM1221.66 234C1195.33 234 1182.16 219.333 1182.16 190V124H1162.66C1161 124 1159.58 123.5 1158.41 122.5C1157.41 121.333 1156.91 119.917 1156.91 118.25V109.75C1156.91 108.083 1157.41 106.75 1158.41 105.75C1159.58 104.583 1161 104 1162.66 104H1182.16V62.25C1182.16 60.5833 1182.66 59.25 1183.66 58.25C1184.83 57.0833 1186.25 56.5 1187.91 56.5H1199.66C1201.33 56.5 1202.66 57.0833 1203.66 58.25C1204.83 59.25 1205.41 60.5833 1205.41 62.25V104H1236.41C1238.08 104 1239.41 104.583 1240.41 105.75C1241.58 106.75 1242.16 108.083 1242.16 109.75V118.25C1242.16 119.917 1241.58 121.333 1240.41 122.5C1239.41 123.5 1238.08 124 1236.41 124H1205.41V188.25C1205.41 196.583 1206.83 202.917 1209.66 207.25C1212.5 211.417 1217.16 213.5 1223.66 213.5H1238.91C1240.58 213.5 1241.91 214.083 1242.91 215.25C1244.08 216.25 1244.66 217.583 1244.66 219.25V228.25C1244.66 229.917 1244.08 231.333 1242.91 232.5C1241.91 233.5 1240.58 234 1238.91 234H1221.66Z" fill="black"/>
<path fill-rule="evenodd" clip-rule="evenodd" d="M317 292V291V262V43C317 34.7157 310.284 28 302 28H272C263.716 28 257 34.7157 257 43V247H145.943V152.365C145.943 144.081 139.227 137.365 130.943 137.365H100.943C92.6582 137.365 85.9425 144.081 85.9425 152.365V291.583C85.9425 292.356 86.001 293.116 86.1139 293.858C87.0289 301.265 93.3448 307 101 307H302C310.284 307 317 300.284 317 292Z" fill="url(#paint0_linear)"/>
<path fill-rule="evenodd" clip-rule="evenodd" d="M60 88V291C60 299.284 53.2843 306 45 306H15C6.71573 306 0 299.284 0 291V73V43C0 34.7157 6.71573 28 15 28H45H186H216C224.284 28 231 34.7157 231 43V73V211C231 219.284 224.284 226 216 226H186C177.716 226 171 219.284 171 211V88H60Z" fill="url(#paint1_linear)"/>
<ellipse cx="115.332" cy="157.166" rx="36.2475" ry="36.5845" transform="rotate(-0.168584 115.332 157.166)" fill="#FF3F8F"/>
<defs>
<linearGradient id="paint0_linear" x1="317" y1="282" x2="114" y2="167" gradientUnits="userSpaceOnUse">
<stop stop-color="#8800FF"/>
<stop offset="1" stop-color="#C747F4"/>
</linearGradient>
<linearGradient id="paint1_linear" x1="205" y1="173" x2="-55" y2="172" gradientUnits="userSpaceOnUse">
<stop stop-color="#8BB3F6"/>
<stop offset="1" stop-color="#CADEFF"/>
</linearGradient>
</defs>
</svg>
